<svg xmlns="http://www.w3.org/2000/svg" viewBox="0 0 1334.06 168.53"><defs><style>.cls-1{fill:#fff;}.cls-2{fill:#e43f5a;}</style></defs><g id="Camada_2" data-name="Camada 2"><g id="Camada_1-2" data-name="Camada 1"><path class="cls-1" d="M0,88.22C0,38.15,30.1,7.63,71.25,7.63c21.51,0,35.67,9.76,44.76,19.14L105.19,39.64C97.32,31.52,87.36,25,71.77,25,40.49,25,20.4,49,20.4,87.69c0,39,18.45,63.48,51.57,63.48,11.13,0,21.84-3.34,28-9.12V101.63H67.07V85.26H118v65.25c-10,10.41-27,18-47.85,18C29.15,168.53,0,138.63,0,88.22Z"/><path class="cls-1" d="M149.56,14.53C149.56,6.89,155.44,2,163,2s13.44,4.93,13.44,12.57c0,7.34-5.88,12.56-13.44,12.56S149.56,21.87,149.56,14.53Zm3.56,36.2h19.46v115H153.12Z"/><path class="cls-1" d="M214.71,130.15V66.58h-17.1V51.85l18-1.12,2.34-32.24h16.25V50.73h31.14V66.58H234.17v63.91c0,14,4.53,22.19,17.77,22.19,4.09,0,9.37-1.54,13.1-3.08l3.76,14.68c-6.45,2.19-14.15,4.25-21.33,4.25C223,168.53,214.71,153,214.71,130.15Z"/><path class="cls-2" d="M290,11.55h34.85V71H378.1V11.55H413V165.69H378.1V101.34H324.89v64.35H290Z"/><path class="cls-2" d="M445.44,121.2V48.35h34.77v68.4c0,16.88,4.53,22.17,14.57,22.17,8.74,0,14.08-3.68,20.86-12.91V48.35h34.77V165.69H522l-2.5-16.27h-.86c-9.8,11.68-20.84,19.11-36.84,19.11C456.32,168.53,445.44,150.53,445.44,121.2Z"/><path class="cls-2" d="M611.84,153.17H611l-2.89,12.52h-27.2V0h34.77V40.48l-.87,18c8.91-8,20-13,31.05-13,28.41,0,46,23.48,46,59.46,0,40.46-24,63.55-49.36,63.55C632,168.53,621.16,163.25,611.84,153.17Zm44.37-47.61c0-21.06-6.51-31.6-20.39-31.6-7.15,0-13.38,3.2-20.16,10.52v48.18a27.83,27.83,0,0,0,18.72,7.42C646.5,140.08,656.21,129.85,656.21,105.56Z"/><path class="cls-1" d="M759.32,89.51c0-51.14,33.81-80.8,72.76-80.8,19.93,0,36,9.37,46.36,20L860.07,51.07C852.34,43.86,844,38.8,832.86,38.8,811.72,38.8,795,57.44,795,88.34c0,31.69,14.75,50.1,37.28,50.1,12.66,0,22.62-6.23,30.15-14.41l18.38,21.88C868,160.8,851,168.53,831.06,168.53,792,168.53,759.32,141.43,759.32,89.51Z"/><path class="cls-1" d="M901.36,129.23V0h34.77V130.65c0,7.46,3.45,9.82,6.29,9.82a15.21,15.21,0,0,0,4.25-.47l4.15,25.64c-3.84,1.64-9.55,2.89-17.45,2.89C909.51,168.53,901.36,153,901.36,129.23Z"/><path class="cls-1" d="M962.19,107.07c0-39,27.46-61.55,57.15-61.55s57.16,22.54,57.16,61.55-27.47,61.46-57.16,61.46S962.19,146,962.19,107.07Zm78.68,0c0-20.31-7.15-33.5-21.53-33.5s-21.52,13.19-21.52,33.5,7.14,33.4,21.52,33.4S1040.87,127.37,1040.87,107.07Z"/><path class="cls-1" d="M1100.26,48.35h28.37l2.5,14.86h.87c9.87-9.49,21.7-17.69,37.7-17.69,25.51,0,36.39,18,36.39,47.33v72.84h-34.76V97.3c0-16.88-4.54-22.17-14.58-22.17-8.73,0-14.07,4.06-21.72,11.41v79.15h-34.77Z"/><path class="cls-1" d="M1228.73,107.07c0-38.07,27.16-61.55,55.35-61.55,33.42,0,50,24.29,50,56.32a78.35,78.35,0,0,1-1.45,15.36h-70.2c3.12,17,14.78,24.83,30.44,24.83,8.87,0,16.86-2.7,25.37-7.68l11.49,21a76.27,76.27,0,0,1-41.62,13.22C1254.64,168.53,1228.73,145.91,1228.73,107.07Zm75.63-12.86c0-12.9-5.62-22.19-19.5-22.19-11,0-20.47,7.36-22.84,22.19Z"/></g></g></svg>